<?xml version="1.0" encoding="UTF-8" standalone="no"?>
<!-- Created with Inkscape (http://www.inkscape.org/) -->

<svg
   version="1.1"
   id="svg2"
   width="72.646805"
   height="130.90009"
   viewBox="0 0 72.646805 130.90008"
   sodipodi:docname="path172.svg"
   inkscape:version="1.2.2 (b0a8486541, 2022-12-01)"
   xmlns:inkscape="http://www.inkscape.org/namespaces/inkscape"
   xmlns:sodipodi="http://sodipodi.sourceforge.net/DTD/sodipodi-0.dtd"
   xmlns="http://www.w3.org/2000/svg"
   xmlns:svg="http://www.w3.org/2000/svg">
  <sodipodi:namedview
     id="namedview27678"
     pagecolor="#505050"
     bordercolor="#eeeeee"
     borderopacity="1"
     inkscape:showpageshadow="0"
     inkscape:pageopacity="0"
     inkscape:pagecheckerboard="0"
     inkscape:deskcolor="#505050"
     showgrid="false"
     inkscape:zoom="5.0993764"
     inkscape:cx="5.6869699"
     inkscape:cy="76.185787"
     inkscape:window-width="1920"
     inkscape:window-height="1131"
     inkscape:window-x="0"
     inkscape:window-y="0"
     inkscape:window-maximized="1"
     inkscape:current-layer="svg2" />
  <defs
     id="defs6" />
  <g
     id="g8"
     transform="translate(-0.85144513,-1.7739708)"
     style="fill:#ffffff">
    <path
       style="fill:#ffffff;stroke-width:0.32"
       d="M 18.851445,118.87725 0.85144513,105.08048 V 79.375068 53.669655 H 37.171445 73.491444 l -0.0091,25.839998 -0.0091,25.839997 -17.909331,13.6 -17.909334,13.6 -0.401609,0.0622 -0.401613,0.0622 z m 34.747081,-5.6876 14.124694,-10.4 L 67.64733,81.189653 67.57144,59.589655 37.251441,59.508035 6.9314411,59.426405 v 21.692481 21.692484 l 15.1199999,11.22159 15.12,11.22159 1.151194,-0.83245 1.151193,-0.83245 z m -39.266111,-13.768369 0.439031,-0.64838 22.386665,0.004 22.386668,0.004 0.644445,0.64445 0.644441,0.644439 H 37.363525 13.893384 l 0.439031,-0.648369 z m 1.239031,-13.25231 V 75.429653 h 6.559999 6.56 v 10.72 10.719999 h -1.12 -1.12 l -5.12e-4,-5.52 -5.12e-4,-5.519999 -0.559502,-1.097255 -0.559474,-1.097251 -0.903652,-0.662749 -0.903653,-0.662745 -1.349943,0.02912 -1.349944,0.02912 -0.88276,0.578406 -0.882759,0.578407 -0.543644,0.99248 -0.543644,0.992467 -0.07331,5.599999 -0.07331,5.6 -1.126693,0.09932 -1.126693,0.09932 z M 30.611445,85.349653 V 73.829654 h 6.56 6.56 V 85.349653 96.869652 H 42.63084 41.530235 l -0.0994,-6.059795 -0.09939,-6.059791 -0.94671,-0.987348 -0.946714,-0.98735 -1.185082,-0.355059 -1.185078,-0.355059 -1.3952,0.675404 -1.395197,0.675405 -0.553008,0.93617 -0.553011,0.936169 v 5.790627 5.790627 h -1.28 -1.28 z m 15.04,0.8 v -10.72 l 6.64,-3e-6 6.639999,-6e-6 -0.06932,10.640005 -0.06931,10.640003 -1.130685,0.09932 -1.130685,0.09932 v -5.821545 -5.821545 l -0.652752,-1.056176 -0.652751,-1.056173 -1.40104,-0.535062 -1.40104,-0.535062 -1.093428,0.36086 -1.093424,0.360864 -0.93278,0.97281 -0.932784,0.97281 -0.0994,6.059791 -0.0994,6.059795 H 46.912041 45.651436 Z M 15.571446,72.789654 v -0.72 h 6.559999 6.56 v 0.72 0.72 h -6.56 -6.559999 z m 30.079983,0 -1.6e-5,-0.72 6.6184,0.06659 6.618399,0.06659 0.04814,0.653411 0.04814,0.653412 H 52.31797 45.651449 Z M 30.291445,71.719026 v -0.190627 l 0.55301,-0.936169 0.55301,-0.93617 1.446991,-0.713203 1.446989,-0.713203 3.04,0.0041 3.04,0.0041 1.31112,0.697478 1.311117,0.697479 0.528883,0.807174 0.52888,0.807174 v 0.331261 0.331258 h -6.88 -6.88 V 71.719042 Z M 0.85144513,35.797183 V 22.084711 l 8.50985997,-6.463823 8.5098609,-6.4638239 2.375148,1.7876799 2.375148,1.787681 7.211649,-5.4792273 7.211649,-5.479227 0.383341,0.152103 0.383344,0.152102 6.994675,5.328414 6.994675,5.3284133 2.371523,-1.784949 2.37152,-1.7849509 8.393805,6.3627769 8.393801,6.362778 0.0834,13.809498 0.0834,13.809499 H 56.545 39.591755 l -0.09015,-3.716057 -0.09016,-3.716057 h -2.24 -2.24 l -0.09016,3.716057 -0.09015,3.716057 H 17.80129 0.85144513 Z m 28.10225687,6.955282 -0.102257,-0.677187 -4.235991,0.05288 -4.235992,0.05288 -0.08401,-11.580537 -0.08401,-11.580538 -1.173691,-0.949822 -1.173691,-0.949822 -5.449608,4.114666 -5.4496099,4.114666 -0.0167,9.039998 -0.0167,9.04 H 17.993699 29.055955 Z m 38.777742,-8.234121 v -8.911311 l -5.598928,-4.247485 -5.598928,-4.247485 -1.121071,0.855082 -1.121072,0.855084 v 11.663713 11.663714 h -4.48 -4.48 v 0.426665 0.426669 l 0.213334,0.213331 0.213331,0.213335 h 10.986669 10.986665 z m -38.719999,-3.67513 v -5.226443 l -1.261236,-1.013557 -1.261235,-1.013556 h -0.178765 -0.178764 v 6.239999 6.239999 h 1.44 1.44 z m 10.56,-1.80859 v -7.035033 l 3.346397,-2.484966 3.346393,-2.484967 0.0016,-0.32 0.0016,-0.32 -4.42192,-3.28 -4.421916,-3.2799989 H 37.18765 36.951704 l -4.308073,3.2597339 -4.308075,3.259734 -0.144555,0.233896 -0.144556,0.233895 3.362588,2.59582 3.362412,2.59582 v 7.030549 7.030549 h 2.4 2.4 z m 8.64,0.795033 v -6.239999 l -0.24,0.0015 -0.24,0.0015 -1.2,1.102156 -1.2,1.102157 v 4.92298 4.922982 l 0.213334,0.213331 0.213331,0.213335 h 1.226669 1.226666 v -6.24 z"
       id="path172" />
  </g>
</svg>
